<?xml version="1.0" encoding="UTF-8"?>
<svg version="1.1" xmlns="http://www.w3.org/2000/svg" width="500" height="500">
<path d="M0 0 C165 0 330 0 500 0 C500 165 500 330 500 500 C335 500 170 500 0 500 C0 335 0 170 0 0 Z " fill="#000000" transform="translate(0,0)"/>
<path d="M0 0 C1.20825439 0.09065231 1.20825439 0.09065231 2.44091797 0.18313599 C5.28524103 0.40692907 8.12426833 0.67039828 10.96484375 0.9375 C13.25903023 1.14179771 15.55321986 1.34606009 17.84741211 1.55029297 C25.03083273 2.20375149 32.20952136 2.90235183 39.38788223 3.60862732 C45.69799334 4.22802217 52.00920657 4.83615457 58.3203125 5.4453125 C59.00569281 5.51160858 59.69107311 5.57790466 60.39722252 5.64620972 C68.76614702 6.45494827 77.13645444 7.23403122 85.515625 7.9296875 C86.33896332 7.99811859 87.16230164 8.06654968 88.0105896 8.13705444 C91.61963245 8.43443033 95.22916459 8.72274766 98.83984375 8.99951172 C118.28580547 10.55938931 118.28580547 10.55938931 125.27734375 16.5625 C126.47326384 17.55969103 127.6713237 18.55431939 128.87109375 19.546875 C129.51820313 20.08892578 130.1653125 20.63097656 130.83203125 21.18945312 C134.88914766 24.51465384 139.09379697 27.64903539 143.27734375 30.8125 C145.09145925 32.19099389 146.90526273 33.5698985 148.71875 34.94921875 C149.60320801 35.62130371 150.48766602 36.29338867 151.39892578 36.98583984 C157.22626288 41.41816456 163.03738871 45.87172298 168.8515625 50.32128906 C171.10705338 52.04626014 173.36394793 53.76938259 175.62109375 55.4921875 C176.77399902 56.3725769 176.77399902 56.3725769 177.95019531 57.27075195 C179.41535217 58.38952147 180.88082589 59.50787621 182.34667969 60.62573242 C183.6501952 61.62142943 184.94600322 62.62732985 186.23242188 63.64501953 C188.10198105 65.1040278 188.10198105 65.1040278 190.94921875 66.55859375 C194.80965866 71.11481062 193.16720405 78.33409246 192.72406006 84.03523254 C192.40234571 87.23038054 192.03587797 90.41716397 191.65234375 93.60546875 C191.45257935 95.34586174 191.45257935 95.34586174 191.2487793 97.12141418 C190.82720429 100.7900521 190.39690157 104.457583 189.96484375 108.125 C189.53339321 111.80318828 189.10404421 115.4815663 188.6809082 119.16072083 C188.41880756 121.43855265 188.15198779 123.71584822 187.87963867 125.99247742 C187.53605381 128.97201318 187.23310856 131.95030752 186.96484375 134.9375 C186.85372253 136.09661392 186.85372253 136.09661392 186.74035645 137.27914429 C186.38911585 144.02540231 188.65795715 149.66836348 191.05859375 155.890625 C191.48354126 157.02667175 191.90848877 158.16271851 192.34631348 159.33319092 C193.70542477 162.95663994 195.08474853 166.57199846 196.46484375 170.1875 C197.36201772 172.56980805 198.25786295 174.95261694 199.15234375 177.3359375 C202.53030919 186.31527271 205.90881332 195.29302276 209.44140625 204.21289062 C209.82123657 205.18103699 210.20106689 206.14918335 210.59240723 207.14666748 C211.29964664 208.94538484 212.01582642 210.74062269 212.74255371 212.53155518 C213.20740173 213.71814728 213.20740173 213.71814728 213.68164062 214.92871094 C213.95520386 215.61092712 214.22876709 216.29314331 214.51062012 216.99603271 C215.05845274 219.3376086 214.7831813 220.69355734 213.96484375 222.9375 C212.49707031 224.42626953 212.49707031 224.42626953 210.60546875 225.8203125 C209.90760254 226.34326904 209.20973633 226.86622559 208.49072266 227.4050293 C207.3641626 228.22547729 207.3641626 228.22547729 206.21484375 229.0625 C204.66514892 230.21715853 203.11567219 231.37210983 201.56640625 232.52734375 C200.79200195 233.09952637 200.01759766 233.67170898 199.21972656 234.26123047 C195.97603045 236.67257927 192.78237694 239.14656164 189.58984375 241.625 C186.75126782 243.82040493 183.95069297 245.94693385 180.96484375 247.9375 C180.40218598 249.77073058 180.40218598 249.77073058 180.31382751 251.92297363 C180.24528061 252.75583389 180.1767337 253.58869415 180.10610962 254.4467926 C180.04523163 255.36218307 179.98435364 256.27757355 179.92163086 257.22070312 C179.8463768 258.18338608 179.77112274 259.14606903 179.69358826 260.13792419 C179.44696572 263.3306987 179.21991946 266.52457743 178.9921875 269.71875 C178.82339297 271.93081884 178.65309076 274.1427731 178.4813385 276.35461426 C178.03141846 282.18586151 177.59682208 288.01813654 177.16693115 293.85089111 C176.47810263 303.18829144 175.77481928 312.52452435 175.05523872 321.85960388 C174.8067925 325.1285533 174.5701115 328.39821513 174.33421326 331.66809082 C174.18283582 333.66352877 174.03101002 335.65893278 173.87866211 337.65429688 C173.81575989 338.56968735 173.75285767 339.48507782 173.68804932 340.4282074 C173.62232224 341.26106766 173.55659515 342.09392792 173.48887634 342.95202637 C173.40899428 344.0404546 173.40899428 344.0404546 173.32749844 345.15087128 C172.96484375 346.9375 172.96484375 346.9375 170.96484375 348.9375 C168.40492473 349.12534482 165.95414735 349.18939805 163.39404297 349.16455078 C162.61346527 349.16484283 161.83288757 349.16513489 161.02865601 349.16543579 C158.44216897 349.16403968 155.85596811 349.14846542 153.26953125 349.1328125 C151.47877154 349.12908337 149.68800979 349.12623592 147.89724731 349.12423706 C143.17895903 349.11659275 138.46079344 349.09693745 133.74255371 349.0748291 C128.92994853 349.05438782 124.11732356 349.04523903 119.3046875 349.03515625 C109.85801894 349.01369228 100.41144154 348.97954675 90.96484375 348.9375 C90.6612645 349.87121429 90.35768524 350.80492859 90.04490662 351.76693726 C89.00035283 354.83326183 87.74699606 357.54547853 86.25 360.4140625 C85.72857422 361.414375 85.20714844 362.4146875 84.66992188 363.4453125 C83.8568457 364.98832031 83.8568457 364.98832031 83.02734375 366.5625 C82.48916016 367.59890625 81.95097656 368.6353125 81.39648438 369.703125 C79.13956574 374.01102889 76.98663482 378.11045602 73.96484375 381.9375 C70.28537297 381.34200239 67.37202154 380.31093382 64.05859375 378.6171875 C62.69541016 377.93849609 62.69541016 377.93849609 61.3046875 377.24609375 C59.40830519 376.28877283 57.51506622 375.32520011 55.625 374.35546875 C54.71621094 373.90558594 53.80742187 373.45570313 52.87109375 372.9921875 C52.04931641 372.57437012 51.22753906 372.15655273 50.38085938 371.72607422 C46.81346969 370.56169784 44.25715948 371.29134213 40.96484375 372.9375 C36.11172996 373.51928451 31.13876141 374.04869633 26.6875 371.7734375 C22.46645934 368.29308685 20.30136264 365.11573394 19.71875 359.61328125 C19.50712462 355.32305763 19.70249001 352.50418408 21.52734375 348.5625 C25.68358767 344.08654501 29.38851228 341.74804505 35.46484375 341.4375 C40.30472518 341.68485339 43.0816837 343.04416506 46.96484375 345.9375 C49.52455126 349.03609331 50.93904509 350.80235879 51.03125 354.859375 C51.63396771 357.95014308 51.63396771 357.95014308 53.63476562 359.17041016 C55.89656898 360.33269718 58.17690098 361.3421164 60.52734375 362.3125 C61.33365234 362.66699219 62.13996094 363.02148438 62.97070312 363.38671875 C64.95980988 364.25768857 66.96125948 365.10037147 68.96484375 365.9375 C69.37367798 364.62519409 69.37367798 364.62519409 69.79077148 363.28637695 C70.89850143 360.12673218 72.19602089 357.31630012 73.75 354.35546875 C74.28044922 353.34162109 74.81089844 352.32777344 75.35742188 351.28320312 C75.90849609 350.24099609 76.45957031 349.19878906 77.02734375 348.125 C77.58228516 347.06345703 78.13722656 346.00191406 78.70898438 344.90820312 C82.81934383 337.08299992 82.81934383 337.08299992 83.96484375 335.9375 C86.33685922 335.81263046 88.68124718 335.75149948 91.05493164 335.73217773 C91.79634903 335.72227814 92.53776642 335.71237854 93.301651 335.70217896 C95.76356768 335.67047534 98.22550368 335.64577174 100.6875 335.62109375 C102.3900148 335.60053186 104.0925244 335.5795356 105.79502869 335.55812073 C110.28471684 335.50282101 114.77445167 335.45344672 119.26422119 335.40527344 C124.64653907 335.34630346 130.02877131 335.28003221 135.41101837 335.21497345 C143.59557471 335.11686458 151.78018496 335.02807663 159.96484375 334.9375 C161.28484375 322.0675 162.60484375 309.1975 163.96484375 295.9375 C160.00484375 295.9375 156.04484375 295.9375 151.96484375 295.9375 C148.22485816 295.37865158 144.64580654 294.73793097 140.96484375 293.9375 C139.99289062 293.76605469 139.0209375 293.59460938 138.01953125 293.41796875 C127.56692522 291.38770066 116.25578334 287.28978332 107.4296875 281.18359375 C103.43076477 279.16195136 99.2836146 279.84621123 94.93554688 280.14257812 C89.69616061 280.34619408 86.97427607 279.27178419 82.96484375 275.9375 C80.07529878 272.69255646 78.71779616 269.20572219 78.52734375 264.875 C79.15382196 259.23669607 80.74185496 255.7922887 85.02734375 252.125 C89.78729277 248.58035712 93.14291957 248.40644611 98.96484375 248.9375 C104.23806528 250.76284591 106.76175461 253.54469203 109.96484375 257.9375 C111.24802267 261.78703676 111.03128012 264.88488135 110.96484375 268.9375 C112.02058594 269.34355469 112.02058594 269.34355469 113.09765625 269.7578125 C116.08394942 270.98650533 118.94162906 272.38920373 121.83984375 273.8125 C135.86551828 280.24485633 149.75838921 281.85650367 164.96484375 282.9375 C165.02019287 282.08631592 165.07554199 281.23513184 165.13256836 280.3581543 C165.342065 277.14681711 165.55282956 273.93556613 165.7644043 270.72436523 C165.8550678 269.34451481 165.94525142 267.96463275 166.03491211 266.5847168 C166.25044677 263.2698178 166.47356828 259.95593352 166.70874023 256.64233398 C166.86997578 254.30987504 167.01276587 251.97599575 167.12915039 249.64086914 C167.21797485 248.18668579 167.21797485 248.18668579 167.30859375 246.703125 C167.35048828 245.86942383 167.39238281 245.03572266 167.43554688 244.17675781 C168.59410226 239.27534176 173.08735606 236.73874597 176.96484375 233.9375 C178.29376688 232.93376419 179.62042942 231.92703123 180.9453125 230.91796875 C184.34470976 228.33810733 187.76892281 225.79428268 191.20507812 223.26367188 C192.77816113 222.07818535 194.30489768 220.83177244 195.82421875 219.578125 C197.96484375 217.9375 197.96484375 217.9375 199.96484375 217.9375 C199.51383301 216.74479744 199.51383301 216.74479744 199.05371094 215.52799988 C196.22328453 208.04026647 193.39758714 200.55076963 190.57720947 193.05924511 C189.1270026 189.20769348 187.67496581 185.35685255 186.21875 181.50756836 C184.81392341 177.79392088 183.41390012 174.07849575 182.01721191 170.36178017 C181.48306537 168.94293945 180.94718089 167.52475177 180.4095459 166.10722923 C179.65776474 164.12420379 178.91215382 162.1389624 178.16796875 160.15307617 C177.74161133 159.02278488 177.31525391 157.89249359 176.87597656 156.72795105 C175.96484375 153.9375 175.96484375 153.9375 175.96484375 150.9375 C175.25740524 151.02519653 174.54996674 151.11289307 173.8210907 151.20324707 C167.15583382 152.02916784 160.49036388 152.85334449 153.82464886 153.67556 C150.39770895 154.09833533 146.97085529 154.52178588 143.54418945 154.94677734 C139.60522747 155.43527622 135.66590666 155.92084228 131.7265625 156.40625 C130.49524094 156.55936646 129.26391937 156.71248291 127.99528503 156.87023926 C126.85432877 157.01038452 125.7133725 157.15052979 124.5378418 157.29492188 C123.02893623 157.48145325 123.02893623 157.48145325 121.48954773 157.67175293 C118.96484375 157.9375 118.96484375 157.9375 115.96484375 157.9375 C115.62453125 159.0203125 115.62453125 159.0203125 115.27734375 160.125 C113.69564657 163.51435109 111.76369873 165.4799688 108.96484375 167.9375 C103.1759606 169.86712772 97.08961682 169.90330594 91.52734375 167.375 C87.08774048 163.15196274 84.77275692 159.47168071 84.46484375 153.375 C84.68390667 148.93331048 86.03386084 146.34377743 88.96484375 142.9375 C93.36210107 139.06372569 95.85326028 137.63914803 101.80078125 137.71484375 C105.82285629 138.12866736 109.6350023 139.47882819 112.4132843 142.52626038 C114.90596921 144.79351202 117.16899957 144.23272381 120.39804077 144.12130737 C124.87848838 143.80046494 129.31508961 143.26208 133.765625 142.66015625 C134.76442184 142.52935165 135.76321869 142.39854706 136.7922821 142.26377869 C138.8876792 141.98823009 140.9827142 141.70991502 143.07739258 141.42895508 C146.28451479 140.99903872 149.49269968 140.57791392 152.70117188 140.15820312 C154.74355703 139.88853116 156.78587717 139.61836621 158.828125 139.34765625 C159.78544022 139.22157486 160.74275543 139.09549347 161.7290802 138.96559143 C162.62068344 138.84554245 163.51228668 138.72549347 164.4309082 138.60180664 C165.21206497 138.4974379 165.99322174 138.39306915 166.79804993 138.28553772 C168.89491048 137.94873292 170.91397814 137.48524943 172.96484375 136.9375 C173.82853037 129.87682719 174.681883 122.81495851 175.52832031 115.75219727 C175.81699979 113.35347746 176.10797758 110.95503303 176.40136719 108.55688477 C176.82452422 105.09462548 177.23919655 101.63143505 177.65234375 98.16796875 C177.78358643 97.10918015 177.9148291 96.05039154 178.05004883 94.95951843 C179.29297257 84.96397129 179.29297257 84.96397129 178.96484375 74.9375 C176.96401339 72.42553315 175.86527951 71.38514041 173.27734375 69.75 C171.98876914 68.8396931 170.701064 67.92815463 169.4140625 67.015625 C168.70427246 66.53029297 167.99448242 66.04496094 167.26318359 65.54492188 C162.92758964 62.51267728 158.77951679 59.229112 154.58984375 56 C144.31854499 48.154849 144.31854499 48.154849 133.94924927 40.44029236 C130.65572904 38.01271013 127.46808705 35.54219426 124.39746094 32.83666992 C114.09347151 24.00240383 105.85527854 22.03734819 92.52734375 21.5 C90.64904335 21.38300407 88.77110791 21.26002201 86.89355469 21.1315918 C82.81494802 20.85637678 78.73576573 20.60637596 74.65478516 20.36914062 C67.41638157 19.926438 60.1984655 19.29550218 52.9765625 18.640625 C51.7089357 18.52569199 50.4413089 18.41075897 49.13526917 18.29234314 C46.58498569 18.06008958 44.03475841 17.82721805 41.48458862 17.59371948 C32.27026531 16.75357179 23.05323405 15.95095857 13.83230591 15.18692017 C11.20828214 14.95867498 8.5901158 14.69771769 5.97045898 14.42456055 C4.54546171 14.29289789 3.12041721 14.16174472 1.6953125 14.03125 C-0.05809448 13.85045898 -0.05809448 13.85045898 -1.84692383 13.66601562 C-7.15713365 14.11819062 -10.88227705 17.34777929 -14.64453125 20.9296875 C-18.26821713 24.22883212 -22.19184808 26.97385378 -26.22265625 29.75 C-27.67804134 30.76816322 -29.13245673 31.78771386 -30.5859375 32.80859375 C-31.31893066 33.32276855 -32.05192383 33.83694336 -32.80712891 34.36669922 C-43.70943952 42.05303129 -54.45090971 49.96468285 -65.17749023 57.89331055 C-71.15794951 62.30785916 -77.18663259 66.64948406 -83.25 70.94921875 C-84.16910156 71.60535156 -85.08820313 72.26148437 -86.03515625 72.9375 C-87.09138184 73.51577293 -87.09138184 73.51577293 -88.16894531 74.10572815 C-90.46250866 76.35696605 -90.55428147 77.97035637 -90.6661377 81.11468506 C-90.67284485 82.16381073 -90.67284485 82.16381073 -90.6796875 83.23413086 C-90.70947693 84.34773735 -90.70947693 84.34773735 -90.73986816 85.48384094 C-90.79852989 87.95682731 -90.82564593 90.42877335 -90.84765625 92.90234375 C-90.85896576 93.75932924 -90.87027527 94.61631474 -90.88192749 95.49926949 C-90.9420974 100.07304933 -90.9788385 104.64632232 -90.99609375 109.22045898 C-91.01334641 112.9327358 -91.06768715 116.64114084 -91.16015625 120.35229492 C-91.75925596 144.86594636 -89.32220479 165.40876364 -80.23118877 188.28040981 C-78.16326279 193.48565262 -76.46121459 198.74723341 -74.88374329 204.11882019 C-74.03348609 206.94304764 -73.07916491 209.7104076 -72.078125 212.484375 C-71.61696289 213.78181641 -71.61696289 213.78181641 -71.14648438 215.10546875 C-70.52341069 216.8469136 -69.88768097 218.58387519 -69.24023438 220.31640625 C-68.93923828 221.17621094 -68.63824219 222.03601563 -68.328125 222.921875 C-67.91856567 224.04674316 -67.91856567 224.04674316 -67.50073242 225.19433594 C-66.20745872 232.81427476 -68.71557602 239.50247114 -71.66796875 246.42578125 C-72.02406219 247.29140182 -72.38015564 248.1570224 -72.74703979 249.0488739 C-73.8738925 251.78723203 -75.01514162 254.51919077 -76.16015625 257.25 C-77.67562605 260.86592993 -79.17619742 264.48752062 -80.66796875 268.11328125 C-81.01997345 268.93935379 -81.37197815 269.76542633 -81.73464966 270.61653137 C-82.05182953 271.3880101 -82.3690094 272.15948883 -82.69580078 272.9543457 C-83.12096481 273.96619682 -83.12096481 273.96619682 -83.55471802 274.99848938 C-84.3167468 278.07397713 -83.4298708 280.18083966 -82 282.921875 C-80.27509132 286.52532795 -80.41602701 290.04400682 -81.03515625 293.9375 C-82.760073 298.21647804 -84.99733618 301.14677995 -88.66015625 303.9375 C-93.58061657 305.39541417 -97.96477913 305.94153507 -103.03515625 304.9375 C-107.47258272 302.44279174 -110.30374393 299.43080016 -112.53515625 294.875 C-113.61586626 288.52582869 -113.13746575 285.10312957 -109.52734375 279.76953125 C-107.35521939 277.1027084 -105.07265852 275.51953243 -102.03515625 273.9375 C-101.23126465 273.91768066 -100.42737305 273.89786133 -99.59912109 273.87744141 C-96.50946079 272.74478171 -96.34968125 272.14626513 -94.98291016 269.26318359 C-94.30441794 267.62950389 -93.6488149 265.98620098 -93.01171875 264.3359375 C-92.48606827 263.0311998 -92.48606827 263.0311998 -91.94979858 261.70010376 C-91.21258869 259.85614026 -90.485265 258.00819832 -89.76708984 256.15673828 C-88.66846534 253.33385001 -87.53233465 250.52835222 -86.390625 247.72265625 C-85.67868027 245.92799772 -84.96897131 244.13245033 -84.26171875 242.3359375 C-83.92226227 241.50025238 -83.58280579 240.66456726 -83.23306274 239.80355835 C-79.99889921 231.3312338 -81.95446739 225.72284493 -85.34971619 217.58355713 C-99.49051555 183.54709672 -105.2052527 151.490283 -105.15943527 114.60363388 C-105.16015512 111.50487634 -105.18590817 108.40710192 -105.21585083 105.3085022 C-105.25286344 100.37911034 -105.20861713 95.4568523 -105.09690666 90.52863312 C-105.06143528 88.7038794 -105.04479932 86.87864518 -105.04861641 85.05355072 C-105.02523116 71.55582546 -105.02523116 71.55582546 -101.72430229 67.21282005 C-98.23241137 63.77159155 -94.27244368 61.3577934 -90.03515625 58.9375 C-88.78863793 58.05382295 -87.55185063 57.15580562 -86.3359375 56.23046875 C-85.34980469 55.53566406 -84.36367187 54.84085938 -83.34765625 54.125 C-82.17152612 53.29215913 -80.99576403 52.45879835 -79.8203125 51.625 C-79.21074707 51.19316406 -78.60118164 50.76132813 -77.97314453 50.31640625 C-74.3967124 47.77172388 -70.84183778 45.19717801 -67.28515625 42.625 C-66.52759033 42.07739014 -65.77002441 41.52978027 -64.98950195 40.96557617 C-63.44278872 39.84744466 -61.89615831 38.72919859 -60.34960938 37.61083984 C-55.83279854 34.34520467 -51.31365125 31.08280382 -46.79492188 27.81982422 C-39.93601901 22.86684857 -39.93601901 22.86684857 -33.08227539 17.90673828 C-31.56002464 16.80885396 -30.03319734 15.71728539 -28.50170898 14.63232422 C-24.48017525 11.77391341 -20.64495131 8.85494155 -16.99731445 5.52856445 C-11.18735699 1.04471988 -7.37414702 -0.72018558 0 0 Z " fill="#FAFAFA" transform="translate(199.03515625,50.0625)"/>
<path d="M0 0 C4.04070117 1.79509709 6.54162779 4.31244169 9 8 C11.28985556 8.46960271 11.28985556 8.46960271 13.98461914 8.41650391 C15.02231949 8.43307037 16.06001984 8.44963684 17.12916565 8.46670532 C18.815131 8.47158463 18.815131 8.47158463 20.53515625 8.4765625 C21.68414902 8.49214203 22.83314178 8.50772156 24.01695251 8.52377319 C27.6987946 8.571445 31.38044561 8.59910887 35.0625 8.625 C38.74799072 8.66142121 42.43337146 8.7019848 46.11875916 8.74765015 C48.4157013 8.77499266 50.71272429 8.79629294 53.00978088 8.81118774 C54.56160316 8.82658096 54.56160316 8.82658096 56.14477539 8.84228516 C57.06029678 8.84878082 57.97581818 8.85527649 58.91908264 8.86196899 C61 9 61 9 62 10 C62.09831146 11.49870048 62.12798456 13.00198539 62.12939453 14.50390625 C62.13254669 15.46159912 62.13569885 16.41929199 62.13894653 17.40600586 C62.13591019 18.96847046 62.13591019 18.96847046 62.1328125 20.5625 C62.13376923 21.62412354 62.13472595 22.68574707 62.13571167 23.77954102 C62.13639364 26.02913472 62.13453819 28.27873037 62.13037109 30.52832031 C62.1250231 33.98507071 62.13031554 37.44169117 62.13671875 40.8984375 C62.13605797 43.07812529 62.13477682 45.257813 62.1328125 47.4375 C62.13483673 48.47914307 62.13686096 49.52078613 62.13894653 50.59399414 C62.13421829 52.03053345 62.13421829 52.03053345 62.12939453 53.49609375 C62.12859894 54.34357178 62.12780334 55.1910498 62.12698364 56.06420898 C62 58 62 58 61 59 C59.60856311 59.09543095 58.21231633 59.12188575 56.81761169 59.12025452 C55.46507797 59.12231651 55.46507797 59.12231651 54.08522034 59.12442017 C53.08828659 59.12082489 52.09135284 59.11722961 51.06420898 59.11352539 C50.02043091 59.11367142 48.97665283 59.11381744 47.90124512 59.1139679 C44.43284057 59.11326826 40.96448897 59.10547353 37.49609375 59.09765625 C35.09855682 59.09579225 32.7010195 59.09436826 30.30348206 59.09336853 C23.97904416 59.08954194 17.65462906 59.07971046 11.3302002 59.06866455 C3.74948854 59.0566596 -3.83123072 59.05204886 -11.41194916 59.04621124 C-22.94131532 59.03649878 -34.47063141 59.01734319 -46 59 C-45.67 81.11 -45.34 103.22 -45 126 C-34.11 126 -23.22 126 -12 126 C-10.35 124.35 -8.7 122.7 -7 121 C-2.94079224 117.90218355 -0.07206712 117.39822933 5 118 C10.27308392 119.83669215 13.93569592 122.21968563 17 127 C18.45083502 131.35250507 18.85342929 135.58113755 17.31640625 139.9375 C14.56782779 145.22936889 10.67917916 148.10694028 5 150 C-0.32163911 150.63138091 -3.01231757 150.39792569 -7.375 147.1875 C-9.84073522 145.19821163 -11.210007 143.68498949 -13 141 C-14.96318679 140.53254153 -14.96318679 140.53254153 -17.25024414 140.58349609 C-18.12777847 140.56692963 -19.00531281 140.55036316 -19.90943909 140.53329468 C-20.85842575 140.53004181 -21.80741241 140.52678894 -22.78515625 140.5234375 C-23.75658066 140.50785797 -24.72800507 140.49227844 -25.72886658 140.47622681 C-28.84006939 140.42857726 -31.95104635 140.4008988 -35.0625 140.375 C-38.17736551 140.33857163 -41.29210123 140.2980042 -44.40684509 140.25234985 C-46.34765567 140.22501946 -48.28856165 140.20371375 -50.22950745 140.18881226 C-51.10388962 140.17855011 -51.97827179 140.16828796 -52.87915039 140.15771484 C-53.65255264 140.15121918 -54.4259549 140.14472351 -55.22279358 140.13803101 C-57 140 -57 140 -58 139 C-58.10055113 136.14445419 -58.13615544 133.31305977 -58.12939453 130.45703125 C-58.13114685 129.56116302 -58.13289917 128.6652948 -58.13470459 127.74227905 C-58.13912447 124.76566663 -58.13618464 121.78911308 -58.1328125 118.8125 C-58.1334855 116.75366199 -58.13445549 114.69482406 -58.13571167 112.63598633 C-58.13718883 108.31493373 -58.13503351 103.99390177 -58.13037109 99.67285156 C-58.1246738 94.12063454 -58.12795271 88.56846586 -58.13394356 83.01625061 C-58.13754869 78.76305779 -58.13641081 74.50987651 -58.13381577 70.25668335 C-58.13314636 68.20885207 -58.13397538 66.16101977 -58.13629532 64.1131897 C-58.13882106 61.25642092 -58.13498236 58.39973157 -58.12939453 55.54296875 C-58.13141876 54.68786713 -58.13344299 53.8327655 -58.13552856 52.95175171 C-58.11426239 47.11426239 -58.11426239 47.11426239 -57 46 C-55.62123975 45.9046081 -54.23763084 45.87811378 -52.85557556 45.87974548 C-51.51566307 45.87768349 -51.51566307 45.87768349 -50.14868164 45.87557983 C-48.66730713 45.88097275 -48.66730713 45.88097275 -47.15600586 45.88647461 C-46.12198135 45.88632858 -45.08795685 45.88618256 -44.02259827 45.8860321 C-40.58665914 45.88673173 -37.15077347 45.89452642 -33.71484375 45.90234375 C-31.33972707 45.90420775 -28.96461 45.90563174 -26.5894928 45.90663147 C-20.32423856 45.91045803 -14.05900733 45.9202895 -7.79376221 45.93133545 C-1.4061311 45.9415466 4.98150371 45.94612845 11.36914062 45.95117188 C23.91277218 45.96191164 36.45638058 45.97950956 49 46 C49 38.08 49 30.16 49 22 C43.44662843 21.98206937 37.90156016 21.98557217 32.34960938 22.04272461 C30.46423799 22.05580849 28.57873814 22.05664996 26.69335938 22.04467773 C14.44445724 21.45046541 14.44445724 21.45046541 3.84375 26.49609375 C2.87045637 27.64300112 1.9157131 28.80661552 1 30 C-2.714608 31.857304 -6.94593118 31.44282906 -11 31 C-15.84534827 28.66705454 -18.7343461 25.87986993 -21 21 C-21.91305297 15.8138591 -22.26214021 11.11449463 -19.49609375 6.48046875 C-13.66645828 -0.27411932 -8.831151 -1.02635344 0 0 Z " fill="#FAFAFA" transform="translate(292,225)"/>
<path d="M0 0 C4.84877258 2.02486196 7.60292921 4.69314465 10.11328125 9.296875 C11.73814645 13.27292763 11.65172535 16.41998551 10.2265625 20.4453125 C8.67926332 23.87600453 7.7578394 25.90690356 4.41723633 27.8527832 C0.66612475 31.69859535 1.24259653 35.3750809 1.296875 40.55859375 C1.29209137 41.57091064 1.28730774 42.58322754 1.28237915 43.6262207 C1.27897416 45.77817327 1.28821829 47.93017713 1.30908203 50.08203125 C1.33539486 53.30463523 1.30958842 56.52361142 1.27734375 59.74609375 C1.25345083 73.34878179 3.0193763 85.37867727 6.9609375 98.37109375 C7.63719078 100.73517031 8.31182835 103.09971003 8.984375 105.46484375 C9.3050293 106.56441406 9.62568359 107.66398437 9.95605469 108.796875 C12.01152748 116.1078861 13.77394292 123.49669719 15.5859375 130.87109375 C16.3670036 134.0488733 17.15131193 137.22582801 17.9375 140.40234375 C18.11149323 141.11491333 18.28548645 141.82748291 18.4647522 142.56164551 C19.20084341 145.53510804 19.96809834 148.38935747 21.08740234 151.24414062 C23.87268352 161.21448196 20.59851737 169.07850389 16.7109375 178.296875 C16.17108051 179.61509538 15.63302578 180.93405513 15.09667969 182.25370789 C13.69094917 185.70199462 12.26615004 189.14202698 10.83544922 192.58001709 C8.54186938 198.09706268 6.2721308 203.62381974 4.01330566 209.15517235 C3.22380707 211.0780306 2.42264439 212.99571189 1.62011719 214.91316223 C1.13961914 216.08175278 0.65912109 217.25034332 0.1640625 218.4543457 C-0.26229492 219.47897415 -0.68865234 220.5036026 -1.12792969 221.5592804 C-2.03324094 224.35312806 -2.22733086 226.45850465 -2.0390625 229.37109375 C-0.60240234 230.0667041 -0.60240234 230.0667041 0.86328125 230.77636719 C4.44930384 232.51283492 8.03500119 234.24997338 11.62060547 235.98730469 C13.16641656 236.73618292 14.71231338 237.48488424 16.25830078 238.23339844 C18.49274419 239.31527872 20.72686869 240.39781519 22.9609375 241.48046875 C23.98175415 241.97447174 23.98175415 241.97447174 25.02319336 242.47845459 C26.01331421 242.95849945 26.01331421 242.95849945 27.0234375 243.44824219 C27.66764648 243.75967163 28.31185547 244.07110107 28.97558594 244.39196777 C30.37240653 245.08084492 31.76042779 245.78771126 33.14160156 246.50744629 C33.85026367 246.87527222 34.55892578 247.24309814 35.2890625 247.62207031 C35.9274707 247.9596637 36.56587891 248.29725708 37.22363281 248.64508057 C39.79509833 249.71968647 41.40660439 249.36444551 43.9609375 248.37109375 C44.56808594 248.03078125 45.17523438 247.69046875 45.80078125 247.33984375 C50.21607166 245.35974968 55.45237503 245.57916571 60.02734375 247.0234375 C64.65099547 249.3502428 67.27135576 252.59400251 68.9609375 257.37109375 C69.64108465 262.81227096 68.61456552 266.59456332 65.9609375 271.37109375 C62.42704634 275.02749313 59.40789989 277.27299461 54.2734375 277.62109375 C48.79196862 277.53155978 44.61943193 275.984764 40.6484375 272.12109375 C38.9609375 269.37109375 38.9609375 269.37109375 38.0859375 265.68359375 C37.7146875 264.59046875 37.3434375 263.49734375 36.9609375 262.37109375 C34.20036206 261.27457237 34.20036206 261.27457237 30.9609375 260.37109375 C28.87010957 259.43583878 26.79514983 258.46457891 24.734375 257.46484375 C23.54618164 256.89016357 22.35798828 256.3154834 21.13378906 255.72338867 C19.86773886 255.10616146 18.60179021 254.4887259 17.3359375 253.87109375 C16.03881385 253.24113402 14.74161275 252.61133373 13.44433594 251.98168945 C5.6825777 248.20917726 -2.06411085 244.40595084 -9.7890625 240.55859375 C-11.03743896 239.93791016 -11.03743896 239.93791016 -12.31103516 239.3046875 C-17.91554059 236.49461566 -17.91554059 236.49461566 -19.0390625 235.37109375 C-18.86504328 227.94358478 -15.92691256 221.54635639 -13.08767319 214.79317093 C-12.20313576 212.68544983 -11.33319942 210.57222636 -10.46707153 208.45687866 C-8.00468219 202.44819235 -5.52252326 196.44789918 -3.01708984 190.45703125 C-1.48005112 186.77891166 0.03536509 183.0924791 1.53802109 179.40018845 C2.11118974 178.00393206 2.69241998 176.6109545 3.28213882 175.22160721 C6.61394401 167.36676574 9.00523802 160.91591598 6.9609375 152.37109375 C6.74185226 151.26717033 6.74185226 151.26717033 6.51834106 150.14094543 C6.11595391 148.13867438 5.64295918 146.165017 5.1484375 144.18359375 C4.97030518 143.44931152 4.79217285 142.7150293 4.60864258 141.95849609 C3.20882635 136.2395466 1.70545446 130.54954121 0.1640625 124.8671875 C-0.83120379 121.17859095 -1.78923072 117.48099524 -2.7421875 113.78125 C-3.04793701 112.59450684 -3.35368652 111.40776367 -3.66870117 110.18505859 C-4.27711325 107.81987853 -4.88411418 105.45433488 -5.48950195 103.08837891 C-5.775271 101.97897949 -6.06104004 100.86958008 -6.35546875 99.7265625 C-6.60756104 98.74324951 -6.85965332 97.75993652 -7.11938477 96.74682617 C-7.62851177 94.87804488 -8.16365261 93.01380709 -8.80140686 91.18492126 C-11.11485964 84.34522792 -11.42162725 78.16009501 -11.33984375 70.9765625 C-11.34747777 68.61653363 -11.35596626 66.25650739 -11.36523438 63.89648438 C-11.36301572 60.21178765 -11.3513325 56.52761693 -11.32397461 52.84301758 C-11.30331072 49.26198899 -11.31924007 45.68255764 -11.33984375 42.1015625 C-11.32133865 40.99942917 -11.30283356 39.89729584 -11.2837677 38.76176453 C-11.16649528 33.36897718 -11.16649528 33.36897718 -13.3555603 28.65396118 C-15.14830173 27.15221883 -15.14830173 27.15221883 -18.0390625 25.37109375 C-20.69269052 20.59456332 -21.71920965 16.81227096 -21.0390625 11.37109375 C-17.37617476 2.51911505 -9.78819968 -3.0189658 0 0 Z " fill="#F9F9F9" transform="translate(144.0390625,126.62890625)"/>
<path d="M0 0 C4.9710149 2.53240382 8.49430567 5.98861134 11 11 C11.53127855 15.84247335 11.52541441 19.83970984 9.5 24.3125 C6.33201244 27.71808663 3.40985534 30.37220105 -1 32 C-3.578125 31.921875 -3.578125 31.921875 -6.3125 31.625 C-10.29685868 31.40977841 -11.63658787 31.72323245 -14.8671875 34.18359375 C-16.80587644 36.0779107 -18.6175637 38.07232264 -20.41796875 40.09765625 C-23.19430492 43.21840932 -26.16525853 45.86886316 -29.34375 48.5625 C-29.8903125 49.036875 -30.436875 49.51125 -31 50 C-31.78036369 50.61171806 -31.78036369 50.61171806 -32.57649231 51.23579407 C-34.58371064 53.72341426 -34.39796252 55.49214477 -34.43237305 58.66479492 C-34.45216721 59.82577194 -34.47196136 60.98674896 -34.49235535 62.1829071 C-34.49874527 63.43610245 -34.50513519 64.68929779 -34.51171875 65.98046875 C-34.52966995 67.26359451 -34.54762115 68.54672028 -34.56611633 69.86872864 C-34.61362737 73.27663059 -34.64342907 76.68446629 -34.66955566 80.09259033 C-34.69935598 83.57162563 -34.74588801 87.05043261 -34.79101562 90.52929688 C-34.87706083 97.35273455 -34.94440051 104.17624822 -35 111 C-34.38511719 111.2784375 -33.77023438 111.556875 -33.13671875 111.84375 C-29.74926362 113.6768153 -27.70456704 116.59086593 -26 120 C-25.40893513 125.68331608 -25.72756584 130.14777003 -29 135 C-33.53939527 139.41670891 -37.62150935 141 -43.9375 141 C-48.69904551 140.24144285 -51.89579677 137.58241832 -55 134 C-57.92317005 129.35215962 -57.6309593 124.30929165 -57 119 C-55.30709561 115.61419122 -54.10921254 113.67625893 -50.88059998 111.70785522 C-48.74015258 110.11949498 -48.74015258 110.11949498 -48.5684967 107.37295532 C-48.61398903 105.78962906 -48.61398903 105.78962906 -48.66040039 104.17431641 C-48.68264175 102.97521637 -48.70488312 101.77611633 -48.72779846 100.54067993 C-48.76735153 99.24077118 -48.8069046 97.94086243 -48.84765625 96.6015625 C-48.86570603 95.24698136 -48.88008752 93.89234684 -48.89097595 92.53768921 C-48.93918071 86.79203195 -49.01437861 81.04853744 -49.18823242 75.30517578 C-49.95968632 48.53191586 -49.95968632 48.53191586 -43.49217224 41.38571167 C-40.80735633 38.9496785 -38.03899346 36.98530779 -35 35 C-33.49965106 33.71176736 -32.01409112 32.40543466 -30.5625 31.0625 C-28.81419741 29.53643926 -27.07931775 28.05914043 -25.21875 26.671875 C-22.35820498 24.32406918 -21.1438542 22.90690694 -20.55078125 19.16796875 C-20.43385813 17.06075434 -20.33351694 14.95255262 -20.25 12.84375 C-19.90212906 8.88671807 -18.72086431 6.86406769 -16 4 C-10.83631376 0.15254751 -6.42086656 -1.15997407 0 0 Z " fill="#F8F8F8" transform="translate(221,79)"/>
<path d="M0 0 C4.39063739 2.15540381 7.47901962 4.79836603 10 9 C11.42475275 13.79819959 11.47704163 17.73244181 9.375 22.3125 C7.06143126 26.34517884 4.16540155 28.91729923 0 31 C-0.74507813 30.9071875 -1.49015625 30.814375 -2.2578125 30.71875 C-6.82499716 30.37029994 -10.29803723 30.65396258 -14.00097656 33.58251953 C-18.30963151 37.71325692 -22.17827966 42.22268081 -26.03710938 46.77001953 C-28.69145467 49.78554066 -31.5369234 52.57852167 -34.42480469 55.36889648 C-36.86985715 57.90073088 -37.13246284 59.59015503 -37.19287109 63.00317383 C-37.20893402 63.82775589 -37.22499695 64.65233795 -37.24154663 65.50190735 C-37.28602528 69.27478199 -37.32706263 73.04748109 -37.35009766 76.82055664 C-37.36665551 78.80993347 -37.39394328 80.79925085 -37.43212891 82.78833008 C-37.48692264 85.65737755 -37.50877517 88.52503087 -37.5234375 91.39453125 C-37.54610687 92.28114944 -37.56877625 93.16776764 -37.59213257 94.08125305 C-37.57687436 98.54643511 -37.52624337 100.36335331 -34.59228516 103.9128418 C-33.73683105 104.601604 -32.88137695 105.29036621 -32 106 C-29.02017862 110.46973207 -29.39183258 114.75924864 -30 120 C-32.18526342 124.45146251 -34.9394521 127.18885145 -39 130 C-43.05468634 131.35156211 -46.7772926 131.85381662 -50.87109375 130.28125 C-55.81969002 127.64199866 -59.18980768 124.43057695 -61 119 C-61.70900035 114.46400909 -61.99406405 110.59778882 -59.5078125 106.6015625 C-55.12260383 101.56130192 -55.12260383 101.56130192 -52 100 C-52.00523682 99.44147339 -52.01047363 98.88294678 -52.01586914 98.30749512 C-52.06274747 92.4663963 -52.05341582 86.62726009 -52.01220703 80.78613281 C-52.00412224 78.60970675 -52.0101189 76.43317912 -52.03076172 74.25683594 C-52.0580451 71.11781055 -52.03381211 67.98264134 -52 64.84375 C-52.02912476 63.39639465 -52.02912476 63.39639465 -52.05883789 61.9197998 C-51.94170379 56.36759467 -51.11937201 53.53035987 -47.1328125 49.54882812 C-45.75900887 48.36147381 -44.38158648 47.17828922 -43 46 C-41.93423009 44.81287179 -40.88822068 43.60728355 -39.875 42.375 C-37.52928276 39.62371483 -35.06540731 37.0516575 -32.484375 34.5234375 C-31.85160645 33.90291504 -31.21883789 33.28239258 -30.56689453 32.64306641 C-29.28801758 31.39634628 -28.00266235 30.15623179 -26.71044922 28.92333984 C-26.1176416 28.34535645 -25.52483398 27.76737305 -24.9140625 27.171875 C-24.3773291 26.6572168 -23.8405957 26.14255859 -23.28759766 25.61230469 C-20.80854945 22.50808884 -20.94015268 19.43548567 -21.1875 15.625 C-21.23773161 9.4967432 -18.40256626 6.57361092 -14.4375 2.125 C-10.18816103 -1.21608331 -5.11463654 -0.82322019 0 0 Z " fill="#F9F9F9" transform="translate(265,89)"/>
<path d="M0 0 C3.77762291 3.72671155 5.84335345 6.92443319 6.25 12.3125 C5.89110912 17.60614053 4.12421111 20.61882635 0.8125 24.6875 C-1.8244839 26.85568676 -2.84323964 27.33872004 -5.94921875 28.1953125 C-9.45231343 29.46368126 -9.93217332 29.89573855 -12.1015625 33.23046875 C-12.63960846 34.53743798 -13.14617972 35.85769056 -13.625 37.1875 C-13.902229 37.88641357 -14.17945801 38.58532715 -14.46508789 39.30541992 C-15.33799161 41.52724391 -16.16849273 43.76240188 -17 46 C-17.58725899 47.50361624 -18.17707878 49.006235 -18.76953125 50.5078125 C-21.80129006 57.55894419 -21.80129006 57.55894419 -23 65 C-18.35413108 64.51515724 -18.35413108 64.51515724 -14 63 C-8.13822375 62.39360935 -4.62034763 63.05099654 0.234375 66.453125 C3.6072276 69.40810205 5.52116613 72.47115861 6.375 76.98046875 C6.68731008 82.0262285 5.33124958 86.14473364 2 90 C-1.60924695 93.16208362 -5.20663309 95.27963397 -10.0625 95.5625 C-15.44672005 94.79332571 -19.10839371 93.34129048 -22.51171875 89.12890625 C-25.91397775 83.97190048 -25.91397775 83.97190048 -26.22265625 80.484375 C-26.81990606 77.67804294 -26.81990606 77.67804294 -29.94140625 75.98046875 C-31.13941133 75.36491918 -32.34698967 74.76771726 -33.5625 74.1875 C-34.17802734 73.87619141 -34.79355469 73.56488281 -35.42773438 73.24414062 C-36.94390731 72.48017752 -38.47098511 71.73792513 -40 71 C-39.40491293 66.45039415 -38.19788349 62.64457767 -36.41796875 58.421875 C-36.0347924 57.50465668 -36.0347924 57.50465668 -35.64387512 56.56890869 C-34.83106378 54.62669703 -34.0095955 52.68829755 -33.1875 50.75 C-32.64718 49.46509861 -32.10746146 48.17994411 -31.56835938 46.89453125 C-31.3046756 46.26639526 -31.04099182 45.63825928 -30.76931763 44.99108887 C-29.99218698 43.13732758 -29.21751002 41.28253827 -28.44287109 39.42773438 C-27.54140408 37.28617822 -26.62489429 35.15081977 -25.68603516 33.02539062 C-25.31140137 32.15591797 -24.93676758 31.28644531 -24.55078125 30.390625 C-24.06025269 29.28509277 -24.06025269 29.28509277 -23.55981445 28.15722656 C-22.64226821 24.62149234 -23.60391196 21.88537327 -25.0625 18.625 C-26.68262214 14.08865801 -26.49803404 10.38342789 -24.875 5.875 C-22.32681188 1.96777821 -19.46384322 -0.96677542 -15.0625 -2.8125 C-9.14419277 -3.35052793 -5.09479913 -3.32269509 0 0 Z " fill="#F7F7F7" transform="translate(207,266)"/>
<path d="M0 0 C3.45574932 1.55860043 5.47805218 2.58971018 7.62060547 5.82421875 C9.73722769 8.55632706 9.73722769 8.55632706 13.05444336 8.7980957 C14.86054077 8.74528442 14.86054077 8.74528442 16.703125 8.69140625 C18.02119141 8.68431641 19.33925781 8.67722656 20.69726562 8.66992188 C22.7825524 8.63038222 24.86638772 8.57802292 26.95092773 8.50952148 C38.57322352 8.1813787 38.57322352 8.1813787 41.84692383 10.80566406 C43.20034543 12.91196026 44.07418526 14.91404442 44.92578125 17.265625 C45.56953682 18.62649172 46.22174216 19.98339712 46.8828125 21.3359375 C47.18678955 22.00206055 47.4907666 22.66818359 47.80395508 23.35449219 C50.66359603 29.5863724 53.00867972 34.57909998 59.1640625 38.125 C62.36802935 40.19940869 63.73723192 42.69997701 64.92578125 46.265625 C65.39000309 52.41656443 64.39243798 56.11378585 60.58984375 60.97265625 C57.06491896 64.64373646 54.06717841 65.7639003 48.98828125 66.078125 C43.35268146 65.79528436 40.29978104 64.15177624 36.41796875 60.125 C33.14248144 56.04350273 32.48426882 52.52072176 32.59375 47.265625 C33.19891816 43.62037678 35.35486408 40.83654217 37.92578125 38.265625 C37.54317007 32.01630908 35.94488361 29.30382971 32.92578125 23.265625 C25.00578125 22.935625 17.08578125 22.605625 8.92578125 22.265625 C8.26578125 23.585625 7.60578125 24.905625 6.92578125 26.265625 C2.28020778 30.33050179 -0.52681273 31.69976197 -6.625 31.6015625 C-11.65715777 30.91134628 -15.36914294 28.42039114 -18.49609375 24.46875 C-21.48168328 19.35643917 -21.55023648 14.92007526 -20.07421875 9.265625 C-16.97253965 1.23774969 -8.0638443 -2.85499572 0 0 Z " fill="#F7F7F7" transform="translate(297.07421875,114.734375)"/>
<path d="M0 0 C4.36872308 2.18436154 7.48211211 4.80352018 10 9 C11.69997335 14.72507154 11.1451903 18.9349769 8.3984375 24.17578125 C7 26 7 26 4.39453125 27.734375 C1.64399401 29.89306415 1.64399401 29.89306415 1.30078125 33.71484375 C1.27831606 35.12222197 1.28299525 36.53025176 1.3125 37.9375 C1.28478516 38.64068359 1.25707031 39.34386719 1.22851562 40.06835938 C1.24196275 42.93797669 1.35311488 45.27282516 3.31396484 47.47705078 C4.84288609 48.69413725 6.42069354 49.84904789 8 51 C11.06996279 55.46781328 10.50330743 60.79657552 10 66 C8.40290501 69.75317323 6.06353956 72.31940288 3 75 C-2.77793782 76.92597927 -8.85227999 76.93718691 -14.4375 74.5 C-18.69088356 70.35035751 -21.15484532 65.88069137 -21.5 59.875 C-20.80144695 54.4612139 -18.22761451 50.45895733 -14 47 C-13.34 47 -12.68 47 -12 47 C-11.46317619 35.19327837 -11.46317619 35.19327837 -16.5 25.0625 C-17.65251142 24.02571206 -18.8162459 23.00096854 -20 22 C-21.73685053 18.52629893 -21.46115112 14.79809188 -21 11 C-16.32482695 1.82280846 -9.82501087 -1.0883089 0 0 Z " fill="#F8F8F8" transform="translate(265,143)"/>
<path d="M0 0 C3.47236431 1.43423743 4.73929159 2.63837221 6.9375 5.6875 C11.37296853 9.03673134 15.29588509 8.60614605 20.72265625 8.6640625 C24.16269302 8.2932968 24.16269302 8.2932968 26.3046875 5.57421875 C26.86414063 4.72472656 27.42359375 3.87523437 28 3 C32.07358667 -0.57981859 36.22095106 -0.44832061 41.4140625 -0.28125 C46.27634868 0.24757871 48.6484618 2.47791425 51.75 6 C55.06387856 10.41850475 55.36882363 13.55985141 55 19 C53.10672504 24.2590971 50.40216785 26.79008594 46 30 C41.93535485 31.35488172 38.25014789 31.53762555 34 31 C30.54901338 29.14669237 27.49571349 27.05031648 25 24 C25 23.34 25 22.68 25 22 C19.72 22 14.44 22 9 22 C8.34 23.32 7.68 24.64 7 26 C1.98852835 30.38503769 -0.90805976 31.3567875 -7.4609375 31.28125 C-12.4120418 30.73281999 -15.09797414 27.99954217 -18.3125 24.4375 C-21.22998531 20.22335456 -21.67586059 16.00707987 -21 11 C-16.11103414 1.41010542 -10.40478408 -1.44997757 0 0 Z " fill="#F9F9F9" transform="translate(202,225)"/>
<path d="M0 0 C2.73251347 1.99399631 3.83247946 3.1623973 4.5 6.5 C4 9 4 9 2.4375 11.375 C0 13 0 13 -3.625 12.9375 C-7 12 -7 12 -9 9 C-8.8125 5.4375 -8.8125 5.4375 -8 2 C-4.75173326 -0.16551116 -3.76905843 -0.55156953 0 0 Z " fill="#0F0F0F" transform="translate(289,234)"/>
<path d="M0 0 C2.5 0.5 2.5 0.5 4.875 2.0625 C6.5 4.5 6.5 4.5 6.4375 8.125 C5.5 11.5 5.5 11.5 2.5 13.5 C-1.0625 13.3125 -1.0625 13.3125 -4.5 12.5 C-6.66551116 9.25173326 -7.05156953 8.26905843 -6.5 4.5 C-4.50600369 1.76748653 -3.3376027 0.66752054 0 0 Z " fill="#0E0E0E" transform="translate(219.5,196.5)"/>
<path d="M0 0 C1.875 1.0625 1.875 1.0625 3 3 C3.4375 6.5 3.4375 6.5 3 10 C1.375 12 1.375 12 -1 13 C-4.67293796 12.77962372 -6.36966546 12.63033454 -9 10 C-9.55021834 3.94759825 -9.55021834 3.94759825 -7.875 1.0625 C-5.11019567 -0.50422245 -3.11811483 -0.38976435 0 0 Z " fill="#0A0A0A" transform="translate(349,158)"/>
<path d="M0 0 C3.3376027 0.66752054 4.50600369 1.76748653 6.5 4.5 C7 7 7 7 6.5 9.5 C4.50600369 12.23251347 3.3376027 13.33247946 0 14 C-3.3376027 13.33247946 -4.50600369 12.23251347 -6.5 9.5 C-7 7 -7 7 -6.5 4.5 C-4.50600369 1.76748653 -3.3376027 0.66752054 0 0 Z " fill="#0C0C0C" transform="translate(234.5,400.5)"/>
<path d="M0 0 C2 2 2 2 2.375 5.4375 C2 9 2 9 0.3125 10.9375 C-2.41818887 12.19214083 -4.02932151 12.45702746 -7 12 C-8.8125 10.9375 -8.8125 10.9375 -10 9 C-10.4375 5.5 -10.4375 5.5 -10 2 C-7.00303875 -1.6885677 -4.34072074 -1.22672543 0 0 Z " fill="#0A0A0A" transform="translate(298,309)"/>
<path d="M0 0 C2 2 2 2 2.375 4.875 C2 8 2 8 0.3125 10.375 C-2 12 -2 12 -4.5625 12.4375 C-7 12 -7 12 -8.8125 10.9375 C-10.67036623 7.90624457 -10.37133265 5.46577141 -10 2 C-7.70689559 -2.31643184 -4.20602073 -0.99415036 0 0 Z " fill="#0A0A0A" transform="translate(201,235)"/>
<path d="M0 0 C2 2 2 2 2.375 5.4375 C2 9 2 9 0.375 11 C-2.81179601 12.34180884 -4.71109893 11.92947204 -8 11 C-10 9 -10 9 -10.375 5.5625 C-10 2 -10 2 -8.375 0 C-5.18820399 -1.34180884 -3.28890107 -0.92947204 0 0 Z " fill="#0B0B0B" transform="translate(106,334)"/>
<path d="M0 0 C2.875 0.875 2.875 0.875 4.875 2.875 C5.25 6.3125 5.25 6.3125 4.875 9.875 C2.76672636 12.29561048 1.47154522 12.7877007 -1.6875 13.25 C-4.125 12.875 -4.125 12.875 -5.9375 11.75 C-7.70344751 8.96166183 -7.58681576 7.10771032 -7.125 3.875 C-4.91145252 0.55467877 -4.03541124 -0.16141645 0 0 Z " fill="#090909" transform="translate(198.125,272.125)"/>
<path d="M0 0 C1.9375 1.5625 1.9375 1.5625 3 4 C2.875 7.625 2.875 7.625 2 11 C-1 13 -1 13 -4.0625 12.75 C-7 12 -7 12 -9 10 C-9.55021834 3.94759825 -9.55021834 3.94759825 -7.875 1.0625 C-5.07837528 -0.52225401 -3.1506804 -0.45947423 0 0 Z " fill="#090909" transform="translate(244,234)"/>
<path d="M0 0 C2.875 0.875 2.875 0.875 4.875 2.875 C5.25 6.3125 5.25 6.3125 4.875 9.875 C2.76672636 12.29561048 1.47154522 12.7877007 -1.6875 13.25 C-4.125 12.875 -4.125 12.875 -5.9375 11.75 C-7.70344751 8.96166183 -7.58681576 7.10771032 -7.125 3.875 C-4.91145252 0.55467877 -4.03541124 -0.16141645 0 0 Z " fill="#080808" transform="translate(301.125,197.125)"/>
<path d="M0 0 C2 2 2 2 2.375 4.875 C2 8 2 8 0.375 10.4375 C-2 12 -2 12 -5.125 11.875 C-8 11 -8 11 -10 9 C-10.543379 3.02283105 -10.543379 3.02283105 -8.9375 0 C-5.80557344 -1.61647822 -3.32814714 -0.78665296 0 0 Z " fill="#090909" transform="translate(264,99)"/>
<path d="M0 0 C1.8125 1.1875 1.8125 1.1875 3 3 C3.4375 6 3.4375 6 3 9 C0.88310295 11.35210784 -0.44041515 11.91810953 -3.5625 12.375 C-6 12 -6 12 -7.8125 10.9375 C-9.69021039 7.87386726 -9.43729494 5.49835955 -9 2 C-6.18112246 -1.3408919 -4.01115641 -1.4399023 0 0 Z " fill="#070707" transform="translate(263,198)"/>
<path d="M0 0 C2 3 2 3 1.8125 6.5625 C1 10 1 10 -2 12 C-7.44444444 11.55555556 -7.44444444 11.55555556 -10 9 C-10.543379 3.02283105 -10.543379 3.02283105 -8.9375 0 C-5.77203476 -1.63378851 -3.34979714 -0.85267564 0 0 Z " fill="#0B0B0B" transform="translate(264,153)"/>
<path d="M0 0 C2 1.6875 2 1.6875 3 4 C2.8624874 6.81900839 2.35530428 8.45769347 0.8125 10.8125 C-1.91793933 12.60140853 -3.81738719 12.46413104 -7 12 C-9.35210784 9.88310295 -9.91810953 8.55958485 -10.375 5.4375 C-10 3 -10 3 -8.9375 1.1875 C-5.87386726 -0.69021039 -3.49835955 -0.43729494 0 0 Z " fill="#090909" transform="translate(220,89)"/>
<path d="M0 0 C2 2 2 2 2.375 4.875 C2 8 2 8 0.3125 10.4375 C-2 12 -2 12 -4.5625 11.9375 C-7.21650072 10.91673049 -8.44107407 10.37941326 -10 8 C-10.39310741 4.85514075 -10.47555213 2.86718329 -8.9375 0.0625 C-5.81651045 -1.6490104 -3.35466116 -0.79291991 0 0 Z " fill="#080808" transform="translate(201,383)"/>
<path d="M0 0 C2.875 0.875 2.875 0.875 4.875 2.875 C5.418379 8.85216895 5.418379 8.85216895 3.8125 11.875 C0.64703476 13.50878851 -1.77520286 12.72767564 -5.125 11.875 C-7.29051116 8.62673326 -7.67656953 7.64405843 -7.125 3.875 C-4.88889892 0.60685227 -4.01504863 -0.16060195 0 0 Z " fill="#060606" transform="translate(180.125,197.125)"/>
<path d="M0 0 C1.875 1.125 1.875 1.125 3 3 C3.42478586 7.07794425 3.31282587 8.53076119 1 12 C-0.875 12.3984375 -0.875 12.3984375 -3 12.375 C-3.70125 12.38273438 -4.4025 12.39046875 -5.125 12.3984375 C-7 12 -7 12 -9 9 C-9.32502803 5.87973093 -9.51151479 3.85252465 -7.875 1.125 C-5.11909116 -0.52854531 -3.14924548 -0.39365568 0 0 Z " fill="#060606" transform="translate(142,136)"/>
<path d="M0 0 C2.31282587 3.46923881 2.42478586 4.92205575 2 9 C0.875 10.875 0.875 10.875 -1 12 C-4.14924548 12.39365568 -6.11909116 12.52854531 -8.875 10.875 C-10.52854531 8.11909116 -10.39365568 6.14924548 -10 3 C-7.72386284 -1.01671263 -4.20715633 -0.45896251 0 0 Z " fill="#040404" transform="translate(201,339)"/>
<path d="M0 0 C1.875 1.125 1.875 1.125 3 3 C3.39365568 6.14924548 3.52854531 8.11909116 1.875 10.875 C-0.88090884 12.52854531 -2.85075452 12.39365568 -6 12 C-7.875 10.875 -7.875 10.875 -9 9 C-9.39365568 5.85075452 -9.52854531 3.88090884 -7.875 1.125 C-5.11909116 -0.52854531 -3.14924548 -0.39365568 0 0 Z " fill="#050505" transform="translate(295,124)"/>
<path d="M0 0 C1.875 1.125 1.875 1.125 3 3 C3.39365568 6.14924548 3.52854531 8.11909116 1.875 10.875 C-0.88090884 12.52854531 -2.85075452 12.39365568 -6 12 C-7.875 10.875 -7.875 10.875 -9 9 C-9.39365568 5.85075452 -9.52854531 3.88090884 -7.875 1.125 C-5.11909116 -0.52854531 -3.14924548 -0.39365568 0 0 Z " fill="#050505" transform="translate(297,353)"/>
</svg>
